<?xml version="1.0" encoding="UTF-8"?>
<svg xmlns="http://www.w3.org/2000/svg" xmlns:xlink="http://www.w3.org/1999/xlink" width="24px" height="24px" viewBox="0 0 24 24" version="1.1">
<g id="surface1">
<path style=" stroke:none;fill-rule:nonzero;fill:rgb(0%,0%,0%);fill-opacity:1;" d="M 20.546875 0 C 19.464844 0 18.429688 0.515625 17.773438 1.394531 L 13.738281 7.136719 C 13.304688 7.714844 12.367188 7.78125 11.863281 7.273438 L 10.726562 6.136719 C 10.285156 5.699219 9.699219 5.453125 9.078125 5.453125 L 8.921875 5.453125 C 8.300781 5.453125 7.714844 5.699219 7.273438 6.136719 L 5.613281 7.796875 C 5.402344 8.007812 5.402344 8.355469 5.613281 8.566406 L 15.433594 18.386719 C 15.539062 18.492188 15.679688 18.546875 15.816406 18.546875 C 15.957031 18.546875 16.097656 18.492188 16.203125 18.386719 L 17.863281 16.726562 C 18.300781 16.285156 18.546875 15.699219 18.546875 15.078125 L 18.546875 14.921875 C 18.546875 14.300781 18.300781 13.714844 17.863281 13.273438 L 16.726562 12.136719 C 16.496094 11.90625 16.363281 11.585938 16.363281 11.257812 C 16.363281 10.867188 16.550781 10.496094 16.847656 10.273438 L 22.617188 6.21875 C 23.484375 5.570312 24 4.535156 24 3.453125 C 24 1.550781 22.449219 0 20.546875 0 Z M 20.726562 4.363281 C 20.125 4.363281 19.636719 3.875 19.636719 3.273438 C 19.636719 2.671875 20.125 2.183594 20.726562 2.183594 C 21.328125 2.183594 21.816406 2.671875 21.816406 3.273438 C 21.816406 3.875 21.328125 4.363281 20.726562 4.363281 Z M 20.726562 4.363281 "/>
<path style=" stroke:none;fill-rule:nonzero;fill:rgb(0%,0%,0%);fill-opacity:1;" d="M 5.324219 9.816406 C 5.109375 9.605469 4.765625 9.605469 4.550781 9.816406 L 0.640625 13.730469 C 0.226562 14.140625 0 14.691406 0 15.273438 C 0 15.855469 0.226562 16.402344 0.640625 16.816406 L 1.476562 17.652344 C 1.648438 17.824219 1.914062 17.863281 2.128906 17.746094 L 4.050781 16.675781 L 2.984375 18.601562 C 2.863281 18.8125 2.902344 19.078125 3.074219 19.25 L 7.183594 23.359375 C 7.597656 23.773438 8.144531 24 8.726562 24 C 9.308594 24 9.859375 23.773438 10.269531 23.359375 L 14.183594 19.449219 C 14.394531 19.234375 14.394531 18.890625 14.183594 18.675781 Z M 5.324219 9.816406 "/>
</g>
</svg>
