<?xml version="1.0" encoding="UTF-8"?>
<svg xmlns="http://www.w3.org/2000/svg" xmlns:xlink="http://www.w3.org/1999/xlink" width="24px" height="24px" viewBox="0 0 24 24" version="1.1">
<g id="surface1">
<path style=" stroke:none;fill-rule:nonzero;fill:rgb(0%,0%,0%);fill-opacity:1;" d="M 14.761719 19.765625 L 4.242188 9.226562 L 0.753906 12.714844 C 0.265625 13.195312 -0.00390625 13.839844 -0.00390625 14.527344 C -0.00390625 15.210938 0.265625 15.855469 0.75 16.332031 L 7.664062 23.246094 C 8.144531 23.734375 8.789062 24.003906 9.476562 24.003906 C 10.160156 24.003906 10.804688 23.734375 11.28125 23.25 Z M 14.761719 19.765625 "/>
<path style=" stroke:none;fill-rule:nonzero;fill:rgb(0%,0%,0%);fill-opacity:1;" d="M 4.949219 8.519531 L 12.71875 0.75 C 13.671875 -0.21875 15.371094 -0.222656 16.335938 0.753906 L 23.25 7.671875 C 23.734375 8.148438 24.003906 8.789062 24.003906 9.476562 C 24.003906 10.160156 23.734375 10.800781 23.246094 11.28125 L 15.472656 19.0625 Z M 4.949219 8.519531 "/>
</g>
</svg>
