<?xml version="1.0" encoding="UTF-8"?>
<svg xmlns="http://www.w3.org/2000/svg" xmlns:xlink="http://www.w3.org/1999/xlink" width="24px" height="24px" viewBox="0 0 24 24" version="1.1">
<g id="surface1">
<path style=" stroke:none;fill-rule:nonzero;fill:rgb(0%,0%,0%);fill-opacity:1;" d="M 0.238281 12.453125 L 0.238281 11.550781 C 5.667969 2.503906 18.332031 2.503906 23.761719 11.546875 L 23.761719 12.453125 C 18.332031 21.496094 5.667969 21.496094 0.238281 12.453125 Z M 12 6.570312 C 9 6.570312 6.574219 9.003906 6.574219 12 C 6.574219 15 9 17.425781 12 17.425781 C 14.996094 17.425781 17.425781 15 17.425781 12 C 17.425781 9.003906 14.996094 6.570312 12 6.570312 Z M 12 6.570312 "/>
<path style=" stroke:none;fill-rule:nonzero;fill:rgb(0%,0%,0%);fill-opacity:1;" d="M 14.714844 12 C 14.714844 10.5 13.5 9.285156 12 9.285156 C 10.503906 9.285156 9.285156 10.5 9.285156 12 C 9.285156 13.503906 10.5 14.710938 12 14.710938 C 13.496094 14.710938 14.714844 13.503906 14.714844 12 Z M 14.714844 12 "/>
</g>
</svg>
