<?xml version="1.0" encoding="UTF-8"?>
<svg xmlns="http://www.w3.org/2000/svg" xmlns:xlink="http://www.w3.org/1999/xlink" width="24px" height="24px" viewBox="0 0 24 24" version="1.1">
<g id="surface1">
<path style=" stroke:none;fill-rule:nonzero;fill:rgb(0%,0%,0%);fill-opacity:1;" d="M 22.175781 8.066406 C 22.253906 7.667969 22.289062 7.261719 22.289062 6.851562 C 22.285156 3.066406 19.210938 0 15.425781 0.00390625 C 12.542969 0.0078125 9.96875 1.8125 8.984375 4.523438 C 7.226562 3.824219 5.230469 4.679688 4.53125 6.441406 C 4.472656 6.59375 4.421875 6.75 4.382812 6.910156 C 1.574219 7.328125 -0.363281 9.945312 0.0585938 12.757812 C 0.433594 15.277344 2.597656 17.140625 5.144531 17.140625 L 9.433594 17.140625 C 9.90625 17.140625 10.289062 16.753906 10.289062 16.28125 C 10.289062 15.808594 9.90625 15.425781 9.433594 15.425781 L 5.144531 15.425781 C 3.253906 15.425781 1.71875 13.890625 1.71875 11.996094 C 1.71875 10.101562 3.253906 8.566406 5.144531 8.566406 C 5.621094 8.566406 6.003906 8.183594 6.003906 7.710938 C 6.003906 6.761719 6.773438 5.996094 7.71875 5.996094 C 8.167969 6 8.597656 6.175781 8.917969 6.488281 C 9.253906 6.820312 9.796875 6.816406 10.128906 6.480469 C 10.253906 6.351562 10.335938 6.191406 10.367188 6.015625 C 10.832031 3.214844 13.476562 1.324219 16.277344 1.789062 C 19.074219 2.253906 20.96875 4.898438 20.503906 7.699219 C 20.476562 7.867188 20.4375 8.03125 20.394531 8.195312 C 20.296875 8.554688 20.4375 8.933594 20.75 9.136719 C 22.328125 10.183594 22.757812 12.3125 21.710938 13.890625 C 21.078125 14.847656 20.007812 15.421875 18.863281 15.425781 L 16.289062 15.425781 C 15.816406 15.425781 15.433594 15.808594 15.433594 16.28125 C 15.433594 16.753906 15.816406 17.140625 16.289062 17.140625 L 18.863281 17.140625 C 21.703125 17.136719 24.003906 14.832031 24 11.992188 C 24 10.480469 23.332031 9.042969 22.175781 8.066406 Z M 22.175781 8.066406 "/>
<path style=" stroke:none;fill-rule:nonzero;fill:rgb(0%,0%,0%);fill-opacity:1;" d="M 17.734375 18.246094 C 17.402344 17.925781 16.875 17.925781 16.542969 18.246094 L 13.71875 21.070312 L 13.71875 8.566406 C 13.71875 8.09375 13.335938 7.710938 12.859375 7.710938 C 12.386719 7.710938 12.003906 8.09375 12.003906 8.566406 L 12.003906 21.070312 L 9.179688 18.246094 C 8.839844 17.917969 8.296875 17.925781 7.96875 18.269531 C 7.648438 18.601562 7.648438 19.128906 7.96875 19.460938 L 12.253906 23.746094 C 12.589844 24.082031 13.132812 24.082031 13.46875 23.746094 L 17.753906 19.460938 C 18.082031 19.117188 18.074219 18.574219 17.734375 18.246094 Z M 17.734375 18.246094 "/>
</g>
</svg>
