<?xml version="1.0" encoding="UTF-8"?>
<svg xmlns="http://www.w3.org/2000/svg" xmlns:xlink="http://www.w3.org/1999/xlink" width="24px" height="24px" viewBox="0 0 24 24" version="1.1">
<g id="surface1">
<path style=" stroke:none;fill-rule:nonzero;fill:rgb(0%,0%,0%);fill-opacity:1;" d="M 22.816406 10.804688 L 13.207031 10.804688 L 13.207031 1.199219 C 13.207031 0.539062 12.667969 0 12.003906 0 C 11.34375 0 10.804688 0.539062 10.804688 1.199219 L 10.804688 10.804688 L 1.199219 10.804688 C 0.539062 10.804688 0 11.34375 0 12.003906 C 0 12.667969 0.539062 13.207031 1.199219 13.207031 L 10.804688 13.207031 L 10.804688 22.816406 C 10.804688 23.480469 11.34375 24.019531 12.003906 24.019531 C 12.667969 24.019531 13.207031 23.480469 13.207031 22.816406 L 13.207031 13.207031 L 22.816406 13.207031 C 23.480469 13.207031 24.019531 12.667969 24.019531 12.003906 C 24.019531 11.34375 23.480469 10.804688 22.816406 10.804688 Z M 22.816406 10.804688 "/>
</g>
</svg>
