<?xml version="1.0" encoding="UTF-8"?>
<svg xmlns="http://www.w3.org/2000/svg" xmlns:xlink="http://www.w3.org/1999/xlink" width="24px" height="24px" viewBox="0 0 24 24" version="1.1">
<g id="surface1">
<path style="fill:none;stroke-width:4;stroke-linecap:butt;stroke-linejoin:miter;stroke:rgb(0.392157%,0.392157%,0.392157%);stroke-opacity:1;stroke-miterlimit:10;" d="M 32 18 C 48 18 61 32 61 32 C 61 32 48 46 32 46 C 16 46 3 32 3 32 C 3 32 16 18 32 18 Z M 32 18 " transform="matrix(0.375,0,0,0.375,0,0)"/>
<path style="fill:none;stroke-width:4;stroke-linecap:butt;stroke-linejoin:miter;stroke:rgb(0.392157%,0.392157%,0.392157%);stroke-opacity:1;stroke-miterlimit:10;" d="M 46 32 C 46 39.729167 39.729167 46 32 46 C 24.270833 46 18 39.729167 18 32 C 18 24.270833 24.270833 18 32 18 C 39.729167 18 46 24.270833 46 32 Z M 46 32 " transform="matrix(0.375,0,0,0.375,0,0)"/>
<path style="fill:none;stroke-width:4;stroke-linecap:butt;stroke-linejoin:miter;stroke:rgb(0.392157%,0.392157%,0.392157%);stroke-opacity:1;stroke-miterlimit:10;" d="M 34 32 C 34 33.104167 33.104167 34 32 34 C 30.895833 34 30 33.104167 30 32 C 30 30.895833 30.895833 30 32 30 C 33.104167 30 34 30.895833 34 32 Z M 34 32 " transform="matrix(0.375,0,0,0.375,0,0)"/>
</g>
</svg>
