<?xml version="1.0" encoding="UTF-8"?>
<svg xmlns="http://www.w3.org/2000/svg" xmlns:xlink="http://www.w3.org/1999/xlink" width="24px" height="24px" viewBox="0 0 24 24" version="1.1">
<g id="surface1">
<path style=" stroke:none;fill-rule:nonzero;fill:rgb(0%,0%,0%);fill-opacity:1;" d="M 14.570312 5.164062 L 14.570312 0.855469 C 14.570312 0.382812 14.957031 0 15.429688 0 C 15.671875 0 15.902344 0.101562 16.066406 0.285156 L 23.78125 8.855469 C 24.0625 9.167969 24.074219 9.640625 23.808594 9.96875 L 16.09375 19.398438 C 15.792969 19.765625 15.253906 19.820312 14.886719 19.519531 C 14.6875 19.355469 14.574219 19.113281 14.570312 18.855469 L 14.570312 14.585938 C 7.800781 14.804688 3.574219 17.699219 1.671875 23.414062 C 1.554688 23.765625 1.226562 24 0.859375 24 C 0.8125 24 0.765625 23.996094 0.71875 23.988281 C 0.304688 23.921875 0 23.5625 0 23.144531 C 0 13.050781 6.078125 5.632812 14.570312 5.164062 Z M 14.570312 5.164062 "/>
</g>
</svg>
