<?xml version="1.0" encoding="UTF-8"?>
<svg xmlns="http://www.w3.org/2000/svg" xmlns:xlink="http://www.w3.org/1999/xlink" width="24px" height="24px" viewBox="0 0 24 24" version="1.1">
<g id="surface1">
<path style=" stroke:none;fill-rule:nonzero;fill:rgb(0%,0%,0%);fill-opacity:1;" d="M 23.660156 6.613281 C 23.457031 6.117188 23.203125 5.722656 22.910156 5.433594 L 18.542969 1.058594 C 18.253906 0.769531 17.855469 0.519531 17.355469 0.308594 C 16.855469 0.105469 16.402344 0 15.984375 0 L 1.5 0 C 1.082031 0 0.726562 0.144531 0.441406 0.441406 C 0.144531 0.726562 0 1.082031 0 1.5 L 0 22.476562 C 0 22.894531 0.144531 23.246094 0.441406 23.535156 C 0.726562 23.832031 1.082031 23.976562 1.5 23.976562 L 22.476562 23.976562 C 22.894531 23.976562 23.246094 23.832031 23.535156 23.535156 C 23.832031 23.246094 23.976562 22.894531 23.976562 22.476562 L 23.976562 7.992188 C 23.976562 7.574219 23.871094 7.121094 23.660156 6.613281 Z M 9.988281 2.496094 C 9.988281 2.363281 10.035156 2.246094 10.136719 2.144531 C 10.238281 2.042969 10.355469 1.996094 10.488281 1.996094 L 13.488281 1.996094 C 13.621094 1.996094 13.738281 2.042969 13.832031 2.144531 C 13.933594 2.246094 13.988281 2.363281 13.988281 2.496094 L 13.988281 7.496094 C 13.988281 7.628906 13.933594 7.746094 13.832031 7.847656 C 13.738281 7.941406 13.621094 7.992188 13.488281 7.992188 L 10.488281 7.992188 C 10.355469 7.992188 10.238281 7.941406 10.136719 7.847656 C 10.035156 7.746094 9.988281 7.628906 9.988281 7.496094 Z M 17.980469 21.980469 L 5.996094 21.980469 L 5.996094 15.984375 L 17.980469 15.984375 Z M 21.980469 21.980469 L 19.980469 21.980469 L 19.980469 15.488281 C 19.980469 15.066406 19.832031 14.714844 19.542969 14.417969 C 19.246094 14.132812 18.894531 13.988281 18.480469 13.988281 L 5.496094 13.988281 C 5.082031 13.988281 4.722656 14.132812 4.433594 14.417969 C 4.144531 14.714844 3.996094 15.066406 3.996094 15.488281 L 3.996094 21.980469 L 1.996094 21.980469 L 1.996094 1.996094 L 3.996094 1.996094 L 3.996094 8.488281 C 3.996094 8.90625 4.144531 9.261719 4.433594 9.550781 C 4.722656 9.84375 5.082031 9.988281 5.496094 9.988281 L 14.484375 9.988281 C 14.902344 9.988281 15.257812 9.84375 15.542969 9.550781 C 15.839844 9.261719 15.984375 8.90625 15.984375 8.488281 L 15.984375 1.996094 C 16.136719 1.996094 16.339844 2.050781 16.59375 2.15625 C 16.839844 2.253906 17.019531 2.363281 17.121094 2.464844 L 21.511719 6.847656 C 21.613281 6.957031 21.714844 7.136719 21.820312 7.386719 C 21.925781 7.644531 21.980469 7.847656 21.980469 7.992188 Z M 21.980469 21.980469 "/>
</g>
</svg>
