<?xml version="1.0" encoding="UTF-8"?>
<svg xmlns="http://www.w3.org/2000/svg" xmlns:xlink="http://www.w3.org/1999/xlink" width="24px" height="24px" viewBox="0 0 24 24" version="1.1">
<g id="surface1">
<path style=" stroke:none;fill-rule:nonzero;fill:rgb(0%,0%,0%);fill-opacity:1;" d="M 9.429688 5.164062 L 9.429688 0.855469 C 9.429688 0.382812 9.042969 0 8.570312 0 C 8.328125 0 8.097656 0.101562 7.933594 0.285156 L 0.21875 8.855469 C -0.0625 9.167969 -0.0742188 9.640625 0.191406 9.96875 L 7.90625 19.398438 C 8.207031 19.765625 8.746094 19.820312 9.113281 19.519531 C 9.3125 19.355469 9.425781 19.113281 9.429688 18.855469 L 9.429688 14.585938 C 16.199219 14.804688 20.425781 17.699219 22.328125 23.414062 C 22.445312 23.765625 22.773438 24 23.140625 24 C 23.1875 24 23.234375 23.996094 23.28125 23.988281 C 23.695312 23.921875 24 23.5625 24 23.144531 C 24 13.050781 17.921875 5.632812 9.429688 5.164062 Z M 9.429688 5.164062 "/>
</g>
</svg>
